<svg xmlns="http://www.w3.org/2000/svg" viewBox="0 0 880 480" preserveAspectRatio="xMidYMid slice" role="img" aria-label="Блокнот со списком задач на берегу моря">
  <defs>
    <linearGradient id="bgGrad2" x1="0" y1="0" x2="0" y2="1">
      <stop offset="0%" stop-color="#DCEEF0"/>
      <stop offset="60%" stop-color="#BFE3E0"/>
      <stop offset="100%" stop-color="#97D4CE"/>
    </linearGradient>
    <linearGradient id="seaGrad2" x1="0" y1="0" x2="0" y2="1">
      <stop offset="0%" stop-color="#57C8BA"/>
      <stop offset="100%" stop-color="#2BAE9F"/>
    </linearGradient>
    <linearGradient id="paperGrad" x1="0" y1="0" x2="0" y2="1">
      <stop offset="0%" stop-color="#FFFFFF"/>
      <stop offset="100%" stop-color="#F4F9F7"/>
    </linearGradient>
  </defs>

  <rect width="880" height="480" fill="url(#bgGrad2)"/>

  <circle cx="660" cy="120" r="42" fill="#FFDF8E" opacity="0.9"/>

  <g fill="#FFFFFF" opacity="0.8">
    <path d="M140 90 q6 -16 12 0 q-6 3 -12 0Z"/>
    <path d="M168 104 q5 -13 10 0 q-5 2 -10 0Z"/>
  </g>

  <path d="M0 300 Q120 276 240 298 T480 292 T720 296 T880 290 L880 480 L0 480 Z" fill="url(#seaGrad2)"/>
  <g fill="#FFFFFF" opacity="0.4">
    <rect x="150" y="264" width="110" height="12" rx="6" transform="rotate(-4 205 270)"/>
    <rect x="610" y="270" width="120" height="12" rx="6" transform="rotate(3 670 276)"/>
  </g>

  <g transform="translate(300 268) rotate(6)">
    <path d="M-4 0 L4 0 L3 10 L-3 10 Z" fill="#74502F"/>
    <path d="M-30 10 L30 10 L22 24 L-22 24 Z" fill="#8B5E3C"/>
  </g>

  <g transform="translate(440 120)">
    <g transform="rotate(-3)">
      <rect x="-100" y="-70" width="200" height="140" rx="10" fill="url(#paperGrad)" stroke="#D8EAE6" stroke-width="2"/>
      <rect x="-92" y="-62" width="184" height="8" rx="4" fill="#40E0D0" opacity="0.85"/>
      <g>
        <rect x="-85" y="-38" width="16" height="16" rx="4" fill="#2EC4B6"/>
        <path d="M-81 -32 l3.4 3.4 6.4 -6.4" stroke="#fff" stroke-width="2" fill="none" stroke-linecap="round"/>
        <rect x="-60" y="-33" width="140" height="7" rx="3.5" fill="#9BDDCE"/>
      </g>
      <g>
        <rect x="-85" y="-8" width="16" height="16" rx="4" fill="#fff" stroke="#2EC4B6" stroke-width="2"/>
        <rect x="-60" y="-3" width="140" height="7" rx="3.5" fill="#CBE8DF"/>
      </g>
      <g>
        <rect x="-85" y="22" width="16" height="16" rx="4" fill="#fff" stroke="#F0AD4E" stroke-width="2"/>
        <rect x="-60" y="27" width="140" height="7" rx="3.5" fill="#E9D8B8"/>
      </g>
    </g>
    <g transform="rotate(6) translate(14 -84)">
      <rect x="-70" y="-12" width="140" height="24" rx="12" fill="#2EC4B6" opacity="0.9"/>
      <text x="0" y="1" text-anchor="middle" font-family="Inter, sans-serif" font-size="11" font-weight="700" fill="#ffffff">Список задач · Приоритет</text>
    </g>
  </g>
</svg>